:SAMPLES-PER-SECOND 30
:FULLY-SPECIFIED
:DEGREES
395
root  14.7019 32.0887 -13.2574 -36.5331 -82.2122 46.2662
RightUpLeg  -66.1021 -14.2243 30.5567
RightLeg  57.9 -2.0936 -4.07715
RightFoot  26.0796 -0.674878 2.50083
RightToes  1.16414e-010 0 -3.6325e-017
Spine  44.6236 2.28738 10.416
Spine1  3.89113 4.18931 22.4118
HEad  -42.567 -37.0466 21.8699
LeftShoulder1  3.02437 -9.85694 -15.873
LeftArm  50.3437 35.9142 -52.6226
LeftForeArm  1.44992 -24.0749 -5.06784
LeftHand  -1.84624 13.6697 -23.4898
RightShoulder  0.00670976 -6.53206 -9.80427
RightArm  -86.5066 40.3896 -25.1797
RightForeArm  -92.7531 4.58293 -13.1728
RightHand  -0.452631 1.23329 -8.11327
LeftUpLeg  -32.7465 26.6859 -35.1105
LeftLeg  56.7166 -1.75469 -2.32273
LeftFoot  -32.9055 1.54015 7.31812
LeftToes  7.09373e-011 9.9627e-011 8.96859e-012
396
root  14.5068 32.2683 -14.9663 -37.5184 -82.0626 44.0222
RightUpLeg  -64.8054 -15.5581 25.5906
RightLeg  61.2673 0.533963 0.47094
RightFoot  29.9147 -6.36806 17.8768
RightToes  1.16414e-010 0 -3.6325e-017
Spine  44.8472 0.825021 10.0696
Spine1  4.00977 3.98196 19.5868
HEad  -41.1297 -35.1664 18.2328
LeftShoulder1  2.83075 -9.15738 -15.5759
LeftArm  50.6852 32.7973 -51.3163
LeftForeArm  1.53749 -23.3121 -5.00601
LeftHand  -1.82179 13.8512 -22.6777
RightShoulder  0.00437548 -6.0144 -9.62432
RightArm  -80.0777 38.5244 -19.9428
RightForeArm  -92.3758 3.20753 -13.0481
RightHand  -0.630051 3.87156 -8.13231
LeftUpLeg  -28.2639 26.1808 -32.3118
LeftLeg  54.2498 3.92205 6.42043
LeftFoot  -39.0244 1.99422 7.16472
LeftToes  7.09373e-011 9.9627e-011 8.96859e-012
397
root  14.3428 32.8454 -16.7286 -38.1481 -83.6946 42.1567
RightUpLeg  -62.2898 -14.7648 19.8467
RightLeg  64.6248 -0.352145 -1.45213
RightFoot  20.2601 -7.12064 25.0481
RightToes  1.16414e-010 0 -3.6325e-017
Spine  45.7304 0.678928 9.68572
Spine1  4.33192 4.16459 17.9283
HEad  -39.7898 -31.731 13.6244
LeftShoulder1  2.74836 -8.62236 -15.9082
LeftArm  50.9003 30.915 -51.5086
LeftForeArm  1.44046 -22.3674 -5.39254
LeftHand  -1.76132 13.8674 -21.8712
RightShoulder  -0.00205068 -3.96625 -8.44592
RightArm  -74.4806 36.0063 -18.4128
RightForeArm  -94.9004 1.32222 -12.9189
RightHand  -0.662487 4.1355 -8.31726
LeftUpLeg  -26.0897 24.9147 -27.5901
LeftLeg  53.7146 9.11149 13.6434
LeftFoot  -39.8262 1.31274 4.18221
LeftToes  7.09373e-011 9.9627e-011 8.96859e-012
398
root  14.1357 33.6551 -18.5173 -50.3827 -86.2211 52.592
RightUpLeg  -59.4963 -11.8346 13.0373
RightLeg  67.4416 -2.03386 -6.08356
RightFoot  9.2214 -3.73846 20.5559
RightToes  1.16414e-010 0 -3.6325e-017
Spine  46.2176 1.64861 8.89755
Spine1  5.38784 4.51931 16.5559
HEad  -38.7726 -27.8105 9.84283
LeftShoulder1  2.74092 -8.4581 -16.1799
LeftArm  51.5136 29.6033 -52.704
LeftForeArm  0.307922 -21.4251 -6.19049
LeftHand  -1.7022 13.7774 -21.3497
RightShoulder  0.00731178 -3.19829 -6.87442
RightArm  -71.8287 34.7078 -16.2152
RightForeArm  -96.2667 1.0385 -12.6591
RightHand  -0.472522 2.32901 -7.30402
LeftUpLeg  -24.4408 24.6523 -21.6106
LeftLeg  53.7926 10.0826 14.9584
LeftFoot  -38.1222 0.270697 0.158934
LeftToes  7.09373e-011 9.9627e-011 8.96859e-012
399
root  13.7911 34.4883 -20.2424 -85.9373 -87.8147 86.9196
RightUpLeg  -56.9335 -8.21124 4.63653
RightLeg  68.5652 -3.89488 -11.5476
RightFoot  7.2532 -1.5226 10.0108
RightToes  1.16414e-010 0 -3.6325e-017
Spine  46.0979 2.41231 8.16343
Spine1  5.67237 4.98181 14.1431
HEad  -37.1 -24.7856 6.44475
LeftShoulder1  2.74327 -8.44251 -16.2344
LeftArm  51.7908 29.1371 -53.4922
LeftForeArm  -0.968616 -20.9057 -6.77248
LeftHand  -1.6552 13.6019 -21.1911
RightShoulder  0.016711 -3.19619 -4.72123
RightArm  -69.0684 33.7943 -13.031
RightForeArm  -96.3647 1.77733 -11.927
RightHand  -0.420739 1.87207 -6.89715
LeftUpLeg  -21.9205 25.9862 -15.9528
LeftLeg  52.5089 8.34982 12.0356
LeftFoot  -36.1268 -0.462359 -3.0912
LeftToes  7.09373e-011 9.9627e-011 8.96859e-012
400
root  13.2694 35.221 -21.9622 -103.973 -88.1168 104.143
RightUpLeg  -53.8877 -5.65463 -4.48996
RightLeg  67.1689 -6.06755 -16.0708
RightFoot  12.096 -0.18205 1.2909
RightToes  1.16414e-010 0 -3.6325e-017
Spine  45.6536 2.39189 7.78166
Spine1  4.04098 5.20053 11.4946
HEad  -34.5996 -22.6907 2.4381
LeftShoulder1  2.75591 -8.31296 -16.6263
LeftArm  51.2559 29.767 -53.1516
LeftForeArm  -1.2389 -20.878 -6.811
LeftHand  -1.61689 13.3882 -21.2415
RightShoulder  0.0963708 -2.12847 -1.84872
RightArm  -64.4491 31.4972 -11.4401
RightForeArm  -97.7739 2.21158 -10.7194
RightHand  -0.413066 1.49503 -7.0611
LeftUpLeg  -18.7939 26.0871 -10.9105
LeftLeg  50.3773 7.52525 10.1295
LeftFoot  -33.8779 -0.871626 -5.39926
LeftToes  7.09373e-011 9.9627e-011 8.96859e-012
401
root  12.6035 35.8291 -23.7165 -61.5282 -88.469 60.9366
RightUpLeg  -49.1235 -4.43591 -12.8344
RightLeg  62.9385 -9.2823 -19.4034
RightFoot  15.6144 0.840495 -3.12739
RightToes  1.16414e-010 0 -3.6325e-017
Spine  44.4268 1.81336 7.99422
Spine1  2.16888 4.6439 9.93009
HEad  -32.3409 -20.6332 -1.80992
LeftShoulder1  2.78246 -8.14846 -17.2302
LeftArm  50.4481 30.5158 -52.5543
LeftForeArm  -0.603348 -20.8291 -6.81074
LeftHand  -1.59768 13.3032 -21.2088
RightShoulder  0.219634 -1.04875 0.651704
RightArm  -60.161 28.4325 -10.5879
RightForeArm  -101.995 2.67133 -9.74391
RightHand  -0.125533 -3.20364 -6.23733
LeftUpLeg  -15.7331 22.7977 -6.01999
LeftLeg  48.5681 8.23088 10.35
LeftFoot  -31.2768 -1.21711 -8.00221
LeftToes  7.09373e-011 9.9627e-011 8.96859e-012
402
root  11.8779 36.3316 -25.3772 -14.6284 -87.2925 13.4747
RightUpLeg  -42.9154 -3.95265 -20.2593
RightLeg  55.4842 -12.7528 -19.4803
RightFoot  15.1324 1.02169 -3.91019
RightToes  1.16414e-010 0 -3.6325e-017
Spine  41.4652 0.96608 8.59659
Spine1  2.2561 3.33525 8.9528
HEad  -30.8955 -17.9888 -5.21825
LeftShoulder1  2.79483 -8.13764 -17.3705
LeftArm  49.4421 30.3526 -52.4619
LeftForeArm  0.616635 -20.0702 -7.51521
LeftHand  -1.60481 13.4038 -21.0385
RightShoulder  0.259956 -0.974927 2.13498
RightArm  -57.0465 25.312 -8.67273
RightForeArm  -104.868 3.36102 -9.20079
RightHand  0.0447757 -6.62599 -7.13018
LeftUpLeg  -13.195 17.2686 -2.27072
LeftLeg  46.9333 9.19487 10.8453
LeftFoot  -28.6513 -1.50831 -11.0059
LeftToes  7.09373e-011 9.9627e-011 8.96859e-012
403
root  11.1072 36.6096 -27.0062 -25.0164 -86.0855 24.1444
RightUpLeg  -37.185 -3.73317 -27.0943
RightLeg  44.8848 -12.8655 -13.798
RightFoot  16.7102 1.46924 -5.3015
RightToes  1.16414e-010 0 -3.6325e-017
Spine  36.9685 0.655236 8.06743
Spine1  3.50721 2.26463 7.31682
HEad  -29.4621 -14.6757 -7.56216
LeftShoulder1  2.77921 -8.18264 -17.1247
LeftArm  47.6081 29.6632 -52.0996
LeftForeArm  2.86407 -18.4982 -9.03324
LeftHand  -1.61685 13.5423 -20.8391
RightShoulder  0.246695 -1.31344 3.23291
RightArm  -54.0815 22.1391 -6.29839
RightForeArm  -106.448 3.83064 -8.79118
RightHand  0.116698 -7.24165 -9.10188
LeftUpLeg  -11.5605 12.6198 -0.580453
LeftLeg  45.1833 10.207 11.2522
LeftFoot  -26.7627 -1.67349 -13.4779
LeftToes  7.09373e-011 9.9627e-011 8.96859e-012
404
root  10.26 36.6358 -28.8912 -35.7347 -86.2212 35.1955
RightUpLeg  -32.0376 -1.82016 -31.3505
RightLeg  34.1131 -7.45497 -5.65818
RightFoot  23.1427 2.32893 -7.09546
RightToes  1.16414e-010 0 -3.6325e-017
Spine  33.4932 1.30695 6.55617
Spine1  3.50326 2.37604 5.40709
HEad  -27.3638 -10.9866 -9.32612
LeftShoulder1  2.75278 -8.10653 -17.0473
LeftArm  45.0231 29.5643 -50.6321
LeftForeArm  6.04387 -16.5679 -10.7834
LeftHand  -1.61501 13.6614 -20.515
RightShoulder  0.27191 -1.32529 4.61871
RightArm  -51.782 18.8641 -4.56103
RightForeArm  -108.034 4.39504 -8.53857
RightHand  0.244814 -8.20783 -11.1368
LeftUpLeg  -9.81382 10.4796 1.91167
LeftLeg  43.6794 11.5938 12.0434
LeftFoot  -25.6849 -1.81308 -15.5438
LeftToes  7.09373e-011 9.9627e-011 8.96859e-012
405
root  9.3168 36.4997 -31.0913 -19.8499 -87.1404 18.9483
RightUpLeg  -26.5975 2.79103 -31.5227
RightLeg  27.3419 -1.63802 -1.04118
RightFoot  26.5562 0.960787 -2.17117
RightToes  1.16414e-010 0 -3.6325e-017
Spine  31.5828 2.19396 5.40988
Spine1  2.26175 2.78978 5.01688
HEad  -25.2644 -7.31287 -10.617
LeftShoulder1  2.71276 -7.96711 -16.9821
LeftArm  42.2198 30.2991 -48.5163
LeftForeArm  9.19194 -14.5323 -12.4128
LeftHand  -1.62745 13.9317 -20.0214
RightShoulder  0.314474 -1.2162 6.09214
RightArm  -50.3869 15.6295 -3.05336
RightForeArm  -108.988 5.7007 -8.25042
RightHand  0.446099 -9.36176 -13.8719
LeftUpLeg  -7.53778 9.20125 7.40178
LeftLeg  42.8361 12.4598 12.5144
LeftFoot  -24.8772 -1.9917 -17.9122
LeftToes  7.09373e-011 9.9627e-011 8.96859e-012
406
root  8.34493 36.2317 -33.4227 11.0318 -86.2854 -11.757
RightUpLeg  -22.0403 5.54202 -29.1599
RightLeg  25.4593 -1.24919 -0.858857
RightFoot  19.1792 -2.63785 10.715
RightToes  1.16414e-010 0 -3.6325e-017
Spine  28.5713 2.66226 3.63995
Spine1  1.92022 2.11287 6.92513
HEad  -24.2538 -3.85583 -11.1895
LeftShoulder1  2.58998 -7.72598 -16.3414
LeftArm  38.9576 31.1257 -46.4
LeftForeArm  12.2462 -12.1707 -14.0089
LeftHand  -1.6644 14.2985 -19.6378
RightShoulder  0.315083 -1.365 7.21963
RightArm  -45.7411 12.8219 -1.76743
RightForeArm  -112.483 6.17321 -6.91156
RightHand  0.539632 -9.26611 -16.754
LeftUpLeg  -6.72048 6.31245 13.1536
LeftLeg  42.6328 12.6727 12.6172
LeftFoot  -23.6504 -2.03164 -20.0027
LeftToes  7.09373e-011 9.9627e-011 8.96859e-012
407
root  7.47885 35.9747 -35.7061 20.9555 -83.9523 -21.8413
RightUpLeg  -18.2035 3.57174 -25.067
RightLeg  26.2827 -2.12439 -1.35584
RightFoot  5.95466 -3.70633 23.8612
RightToes  1.16414e-010 0 -3.6325e-017
Spine  25.8391 2.19394 2.03836
Spine1  2.56184 0.673787 8.81715
HEad  -24.5433 -0.763355 -11.3488
LeftShoulder1  2.31603 -7.03565 -15.1464
LeftArm  35.02 31.4037 -44.1374
LeftForeArm  16.1545 -9.41764 -15.4255
LeftHand  -1.65682 14.3982 -19.3266
RightShoulder  0.285456 -1.64512 7.94074
RightArm  -42.256 10.0877 0.0492114
RightForeArm  -115.168 7.22878 -5.84997
RightHand  0.576269 -8.89366 -19.5061
LeftUpLeg  -6.44755 1.60069 17.9307
LeftLeg  42.6229 14.4755 14.2213
LeftFoot  -20.7568 -1.53882 -19.9611
LeftToes  7.09373e-011 9.9627e-011 8.96859e-012
408
root  6.83435 35.9248 -37.77 27.116 -81.8031 -28.6942
RightUpLeg  -16.2621 -0.765132 -19.9523
RightLeg  28.5228 -1.19553 -0.930566
RightFoot  -3.17996 -1.98939 26.3828
RightToes  1.16414e-010 0 -3.6325e-017
Spine  24.9137 1.22151 2.13249
Spine1  2.8031 -0.338338 9.10074
HEad  -25.5613 1.73652 -11.508
LeftShoulder1  1.99955 -6.02053 -14.0837
LeftArm  31.785 31.1754 -41.5675
LeftForeArm  20.2984 -6.87931 -16.3647
LeftHand  -1.56304 14.2322 -18.5427
RightShoulder  0.266728 -1.81282 8.42935
RightArm  -39.123 7.16377 1.19483
RightForeArm  -118.254 8.29215 -5.07537
RightHand  0.571952 -8.38653 -22.3918
LeftUpLeg  -6.14411 -3.59375 21.7993
LeftLeg  42.9329 19.5578 18.7979
LeftFoot  -14.6386 -0.419098 -16.3201
LeftToes  7.09373e-011 9.9627e-011 8.96859e-012
409
root  6.38267 36.0985 -39.5387 36.5713 -80.5139 -38.8463
RightUpLeg  -16.3524 -2.71253 -14.5997
RightLeg  31.3919 -0.89396 -0.831706
RightFoot  -6.24303 -1.00917 21.6408
RightToes  1.16414e-010 0 -3.6325e-017
Spine  25.244 0.73399 3.24816
Spine1  2.30538 -0.388138 8.9905
HEad  -27.0837 3.3431 -11.8114
LeftShoulder1  1.86855 -5.52841 -13.7432
LeftArm  31.9718 30.9429 -39.0247
LeftForeArm  21.5503 -5.61888 -16.8443
LeftHand  -1.4536 14.1664 -17.3338
RightShoulder  0.258849 -1.89872 8.84731
RightArm  -39.3324 4.01624 1.79199
RightForeArm  -117.397 11.0292 -4.70887
RightHand  0.521749 -7.73891 -25.755
LeftUpLeg  -6.28473 -6.99868 24.9553
LeftLeg  44.186 24.4152 23.6335
LeftFoot  -6.9587 0.452672 -10.5611
LeftToes  7.09373e-011 9.9627e-011 8.96859e-012
